# xmcd
# 
# Track frame offsets:
#     150
#     24880
#     50537
#     77310
#     93692
#     113340
#     134507
#     157875
#     177787
# 
# Disc length: 2693
# 
# Revision: 7
# Processed by: cddbd v1.5.2PL0 Copyright (c) Steve Scherf et al.
# Submitted via: fre:ac v1.0.17
# 
DISCID=5d0a8309
DTITLE=Govi - Guitar Odyssey
DYEAR=1997
DGENRE=New Age
TTITLE0=Sails Of Joy
TTITLE1=Magellans Beat
TTITLE2=Turquoise Galleon
TTITLE3=Lovers Moon
TTITLE4=Beach Fire Dancers
TTITLE5=Dolphin Escort
TTITLE6=Treasure Bay
TTITLE7=Your Lingering Touch
TTITLE8=Rhumba De La Noche
EXTD=
EXTT0=
EXTT1=
EXTT2=
EXTT3=
EXTT4=
EXTT5=
EXTT6=
EXTT7=
EXTT8=
PLAYORDER=
